<?xml version="1.0" encoding="utf-8"?>
<!-- Generator: Adobe Illustrator 24.0.0, SVG Export Plug-In . SVG Version: 6.00 Build 0)  -->
<svg version="1.1" id="Layer_1" xmlns="http://www.w3.org/2000/svg" xmlns:xlink="http://www.w3.org/1999/xlink" x="0px" y="0px"
	 viewBox="0 0 792 612" style="enable-background:new 0 0 792 612;" xml:space="preserve">
<g>
	<g>
		<path d="M98.51,54.44c-2.42,37.94-5.29,75.84-8.61,113.71c-0.67,7.69,11.33,7.65,12,0c3.32-37.87,6.19-75.78,8.61-113.71
			C111,46.73,99,46.76,98.51,54.44L98.51,54.44z"/>
	</g>
</g>
<g>
	<g>
		<path d="M104.34,62.64c6.95,3.04,13.9,6.07,20.86,9.11c3.32,1.45,6.65,2.9,9.97,4.36c2.55,1.12,6.29,2.14,8.04,4.45
			c1.71,2.27,1.45,6.66,1.6,9.27c0.2,3.54,0.25,7.1,0.12,10.64c-0.23,6.13-0.87,12.56-3.56,18.15
			c-5.28,10.95-18.09,13.32-27.63,19.18c-10.06,6.18-17.85,16.67-15.18,28.9c1.64,7.54,13.22,4.35,11.57-3.19
			c-2.76-12.64,16.48-18.54,24.72-22.87c11.9-6.24,18.99-16.19,21.07-29.5c1.1-7.05,1.3-14.21,0.89-21.32
			c-0.37-6.48-0.76-13.41-5.64-18.25c-4.74-4.7-12.13-6.78-18.11-9.39c-7.56-3.3-15.11-6.6-22.67-9.9
			C103.38,49.22,97.27,59.55,104.34,62.64L104.34,62.64z"/>
	</g>
</g>
<g>
	<g>
		<path d="M164.06,142.6c10.56,0.78,21.28,5.46,31.79,1.76c10.24-3.6,15.61-14.12,18.61-23.88c2.58-8.38,5.74-23.33-4.66-27.74
			c-5.35-2.27-10.94,0.11-16.04,2c-5.49,2.03-10.91,4.28-16.23,6.72c-10.78,4.94-21.15,10.79-30.94,17.47
			c-8.93,6.09-17.83,13.04-21.89,23.42c-8.62,22.06,13.12,39.94,31.54,47.07c23.95,9.27,50.48,3.93,72.35-8.2
			c6.75-3.75,0.71-14.11-6.06-10.36c-14.94,8.29-32.34,13.29-49.5,10.68c-7.75-1.18-15.27-3.83-21.96-7.93
			c-6.22-3.81-13.62-9.74-15.85-16.99c-5.14-16.69,19.67-29.32,30.98-35.84c7.76-4.47,15.82-8.5,24.12-11.89
			c3.82-1.56,7.71-3.15,11.66-4.36c0.11-0.03,2.85-1.05,3.23-0.79c-0.55-0.37-0.52-0.65-0.31,0.36c0.4,1.97-0.1,4.39-0.4,6.33
			c-1.21,7.77-4.67,20.3-13.3,22.84c-8.4,2.47-18.65-2.04-27.15-2.66C156.36,130.04,156.39,142.04,164.06,142.6L164.06,142.6z"/>
	</g>
</g>
<g>
	<g>
		<path d="M241.98,147.18c17.11-1.68,34.18-3.86,51.15-6.64c6.95-1.14,13.62-2.74,18.1-8.61c3.93-5.16,5.5-12.14,5.03-18.55
			c-0.96-13.17-9.15-25.23-20.56-31.74c-12.73-7.26-28.36-7.54-42.27-3.96c-25.35,6.54-50.56,27.48-56.28,53.94
			c-3.19,14.74,3.97,27.81,15.86,36.28c10.96,7.8,24.79,10.43,37.89,11.88c18.88,2.1,38.06,2.32,57.01,1.14
			c9.58-0.6,19.12-1.62,28.62-2.96c7.02-0.99,15.33-4.89,13.02-13.46c-2-7.45-13.58-4.29-11.57,3.19c-0.76-2.85,1.48-2.45-1.76-1.72
			c-1.23,0.27-2.58,0.38-3.84,0.55c-3.31,0.45-6.64,0.84-9.97,1.19c-7.08,0.74-14.18,1.26-21.29,1.57
			c-13.57,0.59-27.18,0.37-40.73-0.64c-10.76-0.8-21.81-1.94-31.92-5.97c-9.48-3.78-19.74-11.66-20.25-22.73
			c-0.46-10.02,6.41-21.05,12.71-28.37c6.61-7.69,14.75-13.77,23.91-18.11c18.75-8.88,48.07-9.91,57.57,12.71
			c2.03,4.82,2.71,10.47,0.9,15.47c-2.38,6.57-9.27,6.68-15.26,7.64c-15.29,2.45-30.65,4.39-46.06,5.9
			C234.36,135.93,234.29,147.94,241.98,147.18L241.98,147.18z"/>
	</g>
</g>
<g>
	<g>
		<path d="M315.77,108.66c51.72,1.73,103.18,7.68,153.91,17.86c-1.2-2.94-2.39-5.88-3.59-8.81c-8.51,11.66-24.06,18.02-36.48,24.49
			c-14.22,7.42-28.69,14.35-43.35,20.87c-29.72,13.21-60.23,24.62-91.08,34.9c-17.3,5.76-34.72,11.15-52.21,16.3
			c-6.63,1.95-5.11,11.41,1.6,11.79c74.06,4.16,148.25,1.15,222.2-3.53c21.15-1.34,42.29-2.81,63.43-4.28c7.66-0.53,7.72-12.54,0-12
			c-73.95,5.14-147.99,10.29-222.16,9.77c-21.17-0.15-42.33-0.78-63.47-1.97c0.53,3.93,1.06,7.86,1.6,11.79
			c64.43-18.96,128.13-41.47,187.86-72.42c15.21-7.88,32.07-15.45,42.43-29.65c2.2-3.02-0.03-8.1-3.59-8.81
			c-51.77-10.39-104.34-16.53-157.1-18.29C308.05,96.4,308.06,108.4,315.77,108.66L315.77,108.66z"/>
	</g>
</g>
<g>
	<g>
		<path d="M379.92,155.8c46.12,3.04,92.08,8.17,137.73,15.45c7.55,1.2,10.81-10.36,3.19-11.57c-46.7-7.44-93.73-12.76-140.92-15.88
			C372.21,143.29,372.24,155.29,379.92,155.8L379.92,155.8z"/>
	</g>
</g>
<g>
	<g>
		<path d="M179.49,265.45c-26.32,48.68-28.67,104.99-44.52,157.13c-2.25,7.41,9.33,10.57,11.57,3.19
			c15.5-51.02,17.57-106.65,43.31-154.26C193.52,264.72,183.17,258.65,179.49,265.45L179.49,265.45z"/>
	</g>
</g>
<g>
	<g>
		<path d="M187.42,281.31c-0.91,47.47,0.96,94.96,5.59,142.22c0.57,5.79,7.82,8.34,11.18,3.03
			c36.83-58.15,114.02-87.97,129.26-160.17c1.59-7.53-9.97-10.75-11.57-3.19c-7.06,33.47-30.7,59.53-55.22,81.95
			c-25.84,23.62-53.86,45.4-72.83,75.35c3.73,1.01,7.45,2.02,11.18,3.03c-4.63-47.26-6.49-94.74-5.59-142.22
			C199.57,273.58,187.57,273.58,187.42,281.31L187.42,281.31z"/>
	</g>
</g>
<g>
	<g>
		<path d="M286.45,374.18c-3.02,15.34-6.08,32.16-0.47,47.3c2.77,7.48,6.78,14.62,15.84,11.91c8.51-2.55,16.92-6.81,24.96-10.53
			c25.67-11.87,61.3-27.78,67.93-58.56c1.62-7.53-9.94-10.75-11.57-3.19c-5.23,24.3-32.94,36.91-53.03,46.89
			c-6.54,3.25-13.18,6.32-19.91,9.17c-2.75,1.17-7.45,2.11-9.8,3.97c-2.12,0.23-2.33,0.76-0.64,1.59c-0.27-0.48-0.54-0.96-0.81-1.43
			c-0.43-1.52-1.42-2.99-1.94-4.52c-4.28-12.66-1.5-26.68,1-39.4C299.51,369.83,287.95,366.6,286.45,374.18L286.45,374.18z"/>
	</g>
</g>
<g>
	<g>
		<path d="M455.92,309.49c-16.37,53.04-30.2,106.83-41.44,161.18c-1.56,7.54,10.01,10.76,11.57,3.19
			c11.24-54.36,25.07-108.15,41.44-161.18C469.77,305.29,458.19,302.12,455.92,309.49L455.92,309.49z"/>
	</g>
</g>
<g>
	<g>
		<path d="M412.63,357.05c65.68,12.31,132.01,21.17,198.63,26.42c19.21,1.51,38.44,2.72,57.68,3.64c7.72,0.37,7.7-11.63,0-12
			c-66-3.17-131.84-9.78-197.12-20c-18.71-2.93-37.38-6.15-55.99-9.64C408.27,344.06,405.04,355.63,412.63,357.05L412.63,357.05z"/>
	</g>
</g>
<g>
	<g>
		<path d="M678.78,425.89c-54.45-23.06-113.48-41.94-173.37-36.56c-8.54,0.77-35.79,1.86-26.72,17.68
			c2.9,5.06,8.91,7.88,13.76,10.67c6.52,3.75,13.23,7.14,20.09,10.22c25.47,11.42,52.52,18.62,79.89,23.76
			c29.99,5.63,60.36,8.87,90.52,13.45c15.11,2.29,30.19,4.92,45.09,8.33c7.44,1.71,14.86,3.58,22.18,5.76
			c1.01,0.3,2.1,0.54,3.07,0.94c0.33,0.14,0.66,0.28,1,0.42c1.02,0.77,1.1,0.72,0.24-0.14c-1.8,2.64-7.35,3.7-10.14,4.68
			c-55.59,19.62-116.17,15.27-173.52,7.23c-70.09-9.82-139.58-24.07-207.98-42.24c-7.47-1.98-10.66,9.59-3.19,11.57
			c61.05,16.21,122.94,29.23,185.37,38.89c57.62,8.91,117.31,16.43,174.99,3.89c6.4-1.39,12.75-3.04,19.01-4.97
			c6.76-2.08,14.53-4.02,20.52-7.88c4.78-3.07,8.55-8.35,6.83-14.27c-1.72-5.91-7.68-8.13-13.01-9.71
			c-29.95-8.91-61.04-13.39-91.92-17.61c-56.04-7.66-114.77-14.42-164.49-43.57c-1.5-0.88-3.01-1.75-4.47-2.7
			c-0.92-0.52-1.79-1.11-2.6-1.78c-2.05,1.64-2.26,2.14-0.63,1.51c1.09,0.32,3.78-0.66,4.91-0.83c2.51-0.38,5.02-0.69,7.54-0.96
			c7.9-0.84,15.85-1.25,23.79-1.26c16.63-0.02,33.2,1.7,49.54,4.76c33.65,6.31,66.18,17.74,97.64,31.07
			c3.01,1.27,6.39,0.88,8.21-2.15C682.43,431.6,681.76,427.16,678.78,425.89L678.78,425.89z"/>
	</g>
</g>
</svg>
